<svg width="37" height="37" viewBox="0 0 37 37" fill="none" xmlns="http://www.w3.org/2000/svg">
<path fill-rule="evenodd" clip-rule="evenodd" d="M8.50954 19.9721V35.1687C8.50954 35.9316 7.88032 36.55 7.10366 36.55H1.48083C0.704171 36.55 0.0749512 35.9316 0.0749512 35.1687V7.53864C0.0749512 6.96637 0.433927 6.45345 0.977789 6.24888C0.977789 6.24888 13.2073 1.64287 16.8405 0.27453C17.8122 -0.0915101 18.8874 -0.0915101 19.8591 0.27453C23.4924 1.64287 35.7222 6.24888 35.7222 6.24888C36.4466 6.52175 36.8093 7.32114 36.5316 8.033C36.2539 8.74518 35.4405 9.10161 34.7161 8.82874C34.7161 8.82874 22.4863 4.22273 18.853 2.85439C18.5291 2.73237 18.1708 2.73237 17.847 2.85439L2.88637 8.48889V33.7871H5.69812V13.0647C5.69812 12.3018 6.32734 11.6831 7.10366 11.6831H29.596C30.3723 11.6831 31.0019 12.3018 31.0019 13.0647V33.7871H33.8133V13.0647C33.8133 12.3021 34.4432 11.6831 35.2192 11.6831C35.9948 11.6831 36.6247 12.3021 36.6247 13.0647V35.1687C36.6247 35.9316 35.9955 36.55 35.2192 36.55H29.596C28.8197 36.55 28.1901 35.9316 28.1901 35.1687V19.9721H8.50954ZM28.1902 17.2092V14.4463H8.50957V17.2092H28.1902Z" fill="black"/>
</svg>
